<svg width="1800" height="1800" viewBox="0 0 1800 1800" fill="none" xmlns="http://www.w3.org/2000/svg">
<path d="M940.054 1715.26C1398.62 1463.14 1543.63 1026.34 1517.88 431.45C1517.67 426.603 1513.94 422.538 1509.13 421.912C1361.96 402.76 1275.01 390.312 1126.86 337.3C1110.25 331.355 1091.99 340.68 1087.33 357.702L943.854 882.632C938.212 903.271 955.372 923.013 976.596 920.3L1161.89 896.616C1177.53 894.616 1189.23 910.677 1182.52 924.955C1054.95 1196.38 968.285 1377.5 847.276 1619.09C815.299 1682.93 877.486 1749.66 940.054 1715.26Z" fill="black" stroke="black" stroke-width="10"/>
<path d="M746.736 1523.35C428.51 1283.25 243.099 909.42 281.193 310.243C281.642 303.176 287.101 297.276 294.108 296.255C547.836 259.274 681.304 213.379 896.832 102.659C900 101.032 903.855 101.186 906.861 103.098C961.388 137.786 995.294 156.901 1051.4 185.614C1056.19 188.063 1058.22 193.861 1055.96 198.741L701.254 966.302C698.028 973.285 703.563 981.144 711.224 980.458L911.29 962.541C935.742 960.352 954.791 983.359 948.078 1006.97L807.256 1502.33C799.767 1528.68 768.599 1539.85 746.736 1523.35Z" fill="black" stroke="black" stroke-width="10"/>
<path d="M1440.24 501.716C1454.63 1058.46 1325.62 1350.52 936.078 1634.39C931.9 1637.44 926.353 1632.99 928.586 1628.32L1294.77 863.781C1308.56 834.993 1284.74 802.446 1253.13 806.892L1047.28 835.851C1040.1 836.86 1034.27 830.139 1036.28 823.176L1147.16 438.833C1148.72 433.439 1154.41 430.386 1159.77 432.054C1261.68 463.752 1323.93 478.533 1431.43 491.945C1436.34 492.558 1440.11 496.769 1440.24 501.716Z" fill="url(#paint0_linear)"/>
<path d="M736.228 1414.98C440.992 1160.55 333.572 818.277 351.652 369.293C351.845 364.508 355.489 360.482 360.225 359.766C575.54 327.252 694.854 291.598 892.404 190.36C895.261 188.896 898.695 188.861 901.557 190.314L953.349 216.608C958.168 219.055 960.171 224.889 957.871 229.78L593.064 1005.56C578.127 1037.33 603.69 1073.2 638.591 1069.45L842.211 1047.59C849.272 1046.83 854.852 1053.47 852.889 1060.29L752.255 1410.21C750.254 1417.16 741.711 1419.71 736.228 1414.98Z" fill="url(#paint1_linear)"/>
<defs>
<linearGradient id="paint0_linear" x1="1180.74" y1="429" x2="1180.74" y2="1645.87" gradientUnits="userSpaceOnUse">
<stop stop-color="#D14C00"/>
<stop offset="1" stop-color="#DE8F28"/>
</linearGradient>
<linearGradient id="paint1_linear" x1="655.861" y1="188" x2="655.861" y2="1425" gradientUnits="userSpaceOnUse">
<stop stop-color="#D14C00"/>
<stop offset="1" stop-color="#DE8F28"/>
</linearGradient>
</defs>
</svg>
